<svg xmlns="http://www.w3.org/2000/svg" xmlns:xlink="http://www.w3.org/1999/xlink" xmlns:lucid="lucid" width="1141" height="729"><g transform="translate(1540.5 1360.5)" lucid:page-tab-id="0_0"><path d="M-1140-1195a5 5 0 0 1 5-5h270a5 5 0 0 1 5 5v254a5 5 0 0 1-5 5h-270a5 5 0 0 1-5-5z" fill="#fff"/><path d="M-1140-1160v-35a5 5 0 0 1 5-5h270a5 5 0 0 1 5 5v35" fill="#dedeff"/><path d="M-1140-1195a5 5 0 0 1 5-5h270a5 5 0 0 1 5 5v254a5 5 0 0 1-5 5h-270a5 5 0 0 1-5-5zM-1140-1160h280M-1080-1160v224M-970-1160v224" stroke="#282c33" fill="none"/><use xlink:href="#a" transform="matrix(1,0,0,1,-1130,-1200) translate(0 23.6)"/><use xlink:href="#b" transform="matrix(1,0,0,1,-1135,-1157.5) translate(13 17.1)"/><use xlink:href="#c" transform="matrix(1,0,0,1,-1075,-1157.5) translate(0 17.1)"/><use xlink:href="#d" transform="matrix(1,0,0,1,-965,-1157.5) translate(0 17.1)"/><use xlink:href="#e" transform="matrix(1,0,0,1,-1075,-1125.5) translate(0 17.1)"/><use xlink:href="#f" transform="matrix(1,0,0,1,-965,-1125.5) translate(0 17.1)"/><use xlink:href="#g" transform="matrix(1,0,0,1,-1075,-1093.5) translate(0 17.1)"/><use xlink:href="#f" transform="matrix(1,0,0,1,-965,-1093.5) translate(0 17.1)"/><use xlink:href="#h" transform="matrix(1,0,0,1,-1075,-1061.5) translate(0 17.1)"/><use xlink:href="#i" transform="matrix(1,0,0,1,-965,-1061.5) translate(0 17.1)"/><use xlink:href="#j" transform="matrix(1,0,0,1,-1075,-1029.5) translate(0 17.1)"/><use xlink:href="#k" transform="matrix(1,0,0,1,-965,-1029.5) translate(0 17.1)"/><use xlink:href="#l" transform="matrix(1,0,0,1,-965,-1029.5) translate(23.95 17.1)"/><use xlink:href="#m" transform="matrix(1,0,0,1,-1075,-997.5) translate(0 17.1)"/><use xlink:href="#n" transform="matrix(1,0,0,1,-965,-997.5) translate(0 17.1)"/><use xlink:href="#o" transform="matrix(1,0,0,1,-1075,-965.5) translate(0 17.1)"/><use xlink:href="#p" transform="matrix(1,0,0,1,-965,-965.5) translate(0 17.1)"/><path d="M-1520-839.4a5 5 0 0 1 5-5h270a5 5 0 0 1 5 5v94a5 5 0 0 1-5 5h-270a5 5 0 0 1-5-5z" fill="#fff"/><path d="M-1520-804.4v-35a5 5 0 0 1 5-5h270a5 5 0 0 1 5 5v35" fill="#dedeff"/><path d="M-1520-839.4a5 5 0 0 1 5-5h270a5 5 0 0 1 5 5v94a5 5 0 0 1-5 5h-270a5 5 0 0 1-5-5zM-1520-804.4h280M-1460-804.4v64M-1350-804.4v64" stroke="#282c33" fill="none"/><use xlink:href="#q" transform="matrix(1,0,0,1,-1510,-844.3900636898675) translate(0 23.6)"/><use xlink:href="#b" transform="matrix(1,0,0,1,-1515,-801.8900636898675) translate(13 17.1)"/><use xlink:href="#r" transform="matrix(1,0,0,1,-1455,-801.8900636898675) translate(0 17.1)"/><use xlink:href="#s" transform="matrix(1,0,0,1,-1345,-801.8900636898675) translate(0 17.1)"/><use xlink:href="#t" transform="matrix(1,0,0,1,-1455,-769.8900636898675) translate(0 17.1)"/><use xlink:href="#d" transform="matrix(1,0,0,1,-1345,-769.8900636898675) translate(0 17.1)"/><path d="M-1040-815a5 5 0 0 1 5-5h350a5 5 0 0 1 5 5v158a5 5 0 0 1-5 5h-350a5 5 0 0 1-5-5z" fill="#fff"/><path d="M-1040-780v-35a5 5 0 0 1 5-5h350a5 5 0 0 1 5 5v35" fill="#dedeff"/><path d="M-1040-815a5 5 0 0 1 5-5h350a5 5 0 0 1 5 5v158a5 5 0 0 1-5 5h-350a5 5 0 0 1-5-5zM-1040-780h360M-990.52-780v128M-842.76-780v128" stroke="#282c33" fill="none"/><use xlink:href="#u" transform="matrix(1,0,0,1,-1030,-820) translate(0 23.6)"/><use xlink:href="#b" transform="matrix(1,0,0,1,-1035,-777.5) translate(8 17.1)"/><use xlink:href="#v" transform="matrix(1,0,0,1,-985.5190556711748,-777.5) translate(0 17.1)"/><use xlink:href="#w" transform="matrix(1,0,0,1,-837.7576690946921,-777.5) translate(0 17.1)"/><use xlink:href="#x" transform="matrix(1,0,0,1,-1035,-745.5) translate(8.524999999999999 17.1)"/><use xlink:href="#c" transform="matrix(1,0,0,1,-985.5190556711748,-745.5) translate(0 17.1)"/><use xlink:href="#d" transform="matrix(1,0,0,1,-837.7576690946921,-745.5) translate(0 17.1)"/><use xlink:href="#y" transform="matrix(1,0,0,1,-985.5190556711748,-713.5) translate(0 17.1)"/><use xlink:href="#n" transform="matrix(1,0,0,1,-837.7576690946921,-713.5) translate(0 17.1)"/><use xlink:href="#x" transform="matrix(1,0,0,1,-1035,-681.5) translate(8.524999999999999 17.1)"/><use xlink:href="#r" transform="matrix(1,0,0,1,-985.5190556711748,-681.5) translate(0 17.1)"/><use xlink:href="#s" transform="matrix(1,0,0,1,-837.7576690946921,-681.5) translate(0 17.1)"/><path d="M-780-1055a5 5 0 0 1 5-5h350a5 5 0 0 1 5 5v158a5 5 0 0 1-5 5h-350a5 5 0 0 1-5-5z" fill="#fff"/><path d="M-780-1020v-35a5 5 0 0 1 5-5h350a5 5 0 0 1 5 5v35" fill="#dedeff"/><path d="M-780-1055a5 5 0 0 1 5-5h350a5 5 0 0 1 5 5v158a5 5 0 0 1-5 5h-350a5 5 0 0 1-5-5zM-780-1020h360M-724.1-1020v128M-570-1020v128" stroke="#282c33" fill="none"/><use xlink:href="#z" transform="matrix(1,0,0,1,-770,-1060) translate(0 23.6)"/><use xlink:href="#b" transform="matrix(1,0,0,1,-775,-1017.5) translate(11 17.1)"/><use xlink:href="#v" transform="matrix(1,0,0,1,-719.0965556711751,-1017.5) translate(0 17.1)"/><use xlink:href="#s" transform="matrix(1,0,0,1,-565,-1017.5) translate(0 17.1)"/><use xlink:href="#x" transform="matrix(1,0,0,1,-775,-985.5) translate(11.524999999999999 17.1)"/><use xlink:href="#c" transform="matrix(1,0,0,1,-719.0965556711751,-985.5) translate(0 17.1)"/><use xlink:href="#d" transform="matrix(1,0,0,1,-565,-985.5) translate(0 17.1)"/><use xlink:href="#A" transform="matrix(1,0,0,1,-719.0965556711751,-953.5) translate(0 17.1)"/><use xlink:href="#n" transform="matrix(1,0,0,1,-565,-953.5) translate(0 17.1)"/><use xlink:href="#B" transform="matrix(1,0,0,1,-719.0965556711751,-921.5) translate(0 17.1)"/><use xlink:href="#s" transform="matrix(1,0,0,1,-565,-921.5) translate(0 17.1)"/><path d="M-1160.5-1144h-14a6 6 0 0 0-6 6v400a6 6 0 0 0 6 6h114.6" stroke="#3a414a" fill="none"/><path d="M-1150.5-1154v20M-1140.5-1144h-20M-1160.5-1154v20" stroke="#3a414a" fill="#fff"/><path d="M-1040.72-722l-20-10 20-10" stroke="#3a414a" fill="#fff" fill-opacity="0"/><path d="M-1040.72-732h-20" stroke="#3a414a" fill="#fff"/><path d="M-839.5-1144h13.5a6 6 0 0 1 6 6v160a6 6 0 0 0 6 6h14.1" stroke="#3a414a" fill="none"/><path d="M-849.5-1134v-20M-859.5-1144h20M-839.5-1134v-20" stroke="#3a414a" fill="#fff"/><path d="M-780.72-962l-20-10 20-10" stroke="#3a414a" fill="#fff" fill-opacity="0"/><path d="M-780.72-972h-20" stroke="#3a414a" fill="#fff"/><path d="M-1219.5-788.4V-674a6 6 0 0 0 6 6h153.6" stroke="#3a414a" fill="none"/><path d="M-1229.5-778.4v-20M-1239.5-788.4h20M-1219.5-778.4v-20" stroke="#3a414a" fill="#fff"/><path d="M-1040.72-658l-20-10 20-10" stroke="#3a414a" fill="#fff" fill-opacity="0"/><path d="M-1040.72-668h-20" stroke="#3a414a" fill="#fff"/><path d="M-1440-1334a6 6 0 0 1 6-6h868a6 6 0 0 1 6 6v113.83a6 6 0 0 1-6 6h-868a6 6 0 0 1-6-6z" stroke="#000" stroke-opacity="0" fill="#fff" fill-opacity="0"/><use xlink:href="#C" transform="matrix(1,0,0,1,-1435,-1335) translate(228.33333333333354 62.91666666666664)"/><use xlink:href="#D" transform="matrix(1,0,0,1,-1435,-1335) translate(316.388888888889 62.91666666666664)"/><use xlink:href="#E" transform="matrix(1,0,0,1,-1435,-1335) translate(414.44444444444446 62.91666666666664)"/><use xlink:href="#F" transform="matrix(1,0,0,1,-1435,-1335) translate(593.7037037037035 62.91666666666664)"/><defs><path fill="#333" d="M232-93c-1 65-40 97-104 97C67 4 28-28 28-90v-158h33c8 89-33 224 67 224 102 0 64-133 71-224h33v155" id="G"/><path fill="#333" d="M135-143c-3-34-86-38-87 0 15 53 115 12 119 90S17 21 10-45l28-5c4 36 97 45 98 0-10-56-113-15-118-90-4-57 82-63 122-42 12 7 21 19 24 35" id="H"/><path fill="#333" d="M100-194c63 0 86 42 84 106H49c0 40 14 67 53 68 26 1 43-12 49-29l28 8c-11 28-37 45-77 45C44 4 14-33 15-96c1-61 26-98 85-98zm52 81c6-60-76-77-97-28-3 7-6 17-6 28h103" id="I"/><path fill="#333" d="M114-163C36-179 61-72 57 0H25l-1-190h30c1 12-1 29 2 39 6-27 23-49 58-41v29" id="J"/><g id="a"><use transform="matrix(0.05,0,0,0.05,0,0)" xlink:href="#G"/><use transform="matrix(0.05,0,0,0.05,12.950000000000001,0)" xlink:href="#H"/><use transform="matrix(0.05,0,0,0.05,21.950000000000003,0)" xlink:href="#I"/><use transform="matrix(0.05,0,0,0.05,31.950000000000003,0)" xlink:href="#J"/></g><path d="M30-248c87 1 191-15 191 75 0 78-77 80-158 76V0H30v-248zm33 125c57 0 124 11 124-50 0-59-68-47-124-48v98" id="K"/><path d="M194 0L95-120 63-95V0H30v-248h33v124l119-124h40L117-140 236 0h-42" id="L"/><g id="b"><use transform="matrix(0.05,0,0,0.05,0,0)" xlink:href="#K"/><use transform="matrix(0.05,0,0,0.05,12,0)" xlink:href="#L"/></g><path fill="#333" d="M84 4C-5 8 30-112 23-190h32v120c0 31 7 50 39 49 72-2 45-101 50-169h31l1 190h-30c-1-10 1-25-2-33-11 22-28 36-60 37" id="M"/><path fill="#333" d="M117-194c89-4 53 116 60 194h-32v-121c0-31-8-49-39-48C34-167 62-67 57 0H25l-1-190h30c1 10-1 24 2 32 11-22 29-35 61-36" id="N"/><path fill="#333" d="M141-36C126-15 110 5 73 4 37 3 15-17 15-53c-1-64 63-63 125-63 3-35-9-54-41-54-24 1-41 7-42 31l-33-3c5-37 33-52 76-52 45 0 72 20 72 64v82c-1 20 7 32 28 27v20c-31 9-61-2-59-35zM48-53c0 20 12 33 32 33 41-3 63-29 60-74-43 2-92-5-92 41" id="O"/><path fill="#333" d="M210-169c-67 3-38 105-44 169h-31v-121c0-29-5-50-35-48C34-165 62-65 56 0H25l-1-190h30c1 10-1 24 2 32 10-44 99-50 107 0 11-21 27-35 58-36 85-2 47 119 55 194h-31v-121c0-29-5-49-35-48" id="P"/><g id="c"><use transform="matrix(0.05,0,0,0.05,0,0)" xlink:href="#M"/><use transform="matrix(0.05,0,0,0.05,10,0)" xlink:href="#H"/><use transform="matrix(0.05,0,0,0.05,19,0)" xlink:href="#I"/><use transform="matrix(0.05,0,0,0.05,29,0)" xlink:href="#J"/><use transform="matrix(0.05,0,0,0.05,34.95,0)" xlink:href="#N"/><use transform="matrix(0.05,0,0,0.05,44.95,0)" xlink:href="#O"/><use transform="matrix(0.05,0,0,0.05,54.95,0)" xlink:href="#P"/><use transform="matrix(0.05,0,0,0.05,69.9,0)" xlink:href="#I"/></g><path fill="#333" d="M108 0H70L1-190h34L89-25l56-165h34" id="Q"/><path fill="#333" d="M96-169c-40 0-48 33-48 73s9 75 48 75c24 0 41-14 43-38l32 2c-6 37-31 61-74 61-59 0-76-41-82-99-10-93 101-131 147-64 4 7 5 14 7 22l-32 3c-4-21-16-35-41-35" id="R"/><path fill="#333" d="M106-169C34-169 62-67 57 0H25v-261h32l-1 103c12-21 28-36 61-36 89 0 53 116 60 194h-32v-121c2-32-8-49-39-48" id="S"/><path fill="#333" d="M87 75C49 33 22-17 22-94c0-76 28-126 65-167h31c-38 41-64 92-64 168S80 34 118 75H87" id="T"/><path fill="#333" d="M54-142c48-35 137-8 131 61C196 18 31 33 14-55l32-4c7 23 22 37 52 37 35-1 51-22 54-58 4-55-73-65-99-34H22l8-134h141v27H59" id="U"/><path fill="#333" d="M101-251c68 0 85 55 85 127S166 4 100 4C33 4 14-52 14-124c0-73 17-127 87-127zm-1 229c47 0 54-49 54-102s-4-102-53-102c-51 0-55 48-55 102 0 53 5 102 54 102" id="V"/><path fill="#333" d="M33-261c38 41 65 92 65 168S71 34 33 75H2C39 34 66-17 66-93S39-220 2-261h31" id="W"/><g id="d"><use transform="matrix(0.05,0,0,0.05,0,0)" xlink:href="#Q"/><use transform="matrix(0.05,0,0,0.05,9,0)" xlink:href="#O"/><use transform="matrix(0.05,0,0,0.05,19,0)" xlink:href="#J"/><use transform="matrix(0.05,0,0,0.05,24.95,0)" xlink:href="#R"/><use transform="matrix(0.05,0,0,0.05,33.95,0)" xlink:href="#S"/><use transform="matrix(0.05,0,0,0.05,43.95,0)" xlink:href="#O"/><use transform="matrix(0.05,0,0,0.05,53.95,0)" xlink:href="#J"/><use transform="matrix(0.05,0,0,0.05,59.900000000000006,0)" xlink:href="#T"/><use transform="matrix(0.05,0,0,0.05,65.85000000000001,0)" xlink:href="#U"/><use transform="matrix(0.05,0,0,0.05,75.85000000000001,0)" xlink:href="#V"/><use transform="matrix(0.05,0,0,0.05,85.85000000000001,0)" xlink:href="#W"/></g><path fill="#333" d="M115-194c55 1 70 41 70 98S169 2 115 4C84 4 66-9 55-30l1 105H24l-1-265h31l2 30c10-21 28-34 59-34zm-8 174c40 0 45-34 45-75s-6-73-45-74c-42 0-51 32-51 76 0 43 10 73 51 73" id="X"/><path fill="#333" d="M206 0h-36l-40-164L89 0H53L-1-190h32L70-26l43-164h34l41 164 42-164h31" id="Y"/><path fill="#333" d="M100-194c62-1 85 37 85 99 1 63-27 99-86 99S16-35 15-95c0-66 28-99 85-99zM99-20c44 1 53-31 53-75 0-43-8-75-51-75s-53 32-53 75 10 74 51 75" id="Z"/><path fill="#333" d="M85-194c31 0 48 13 60 33l-1-100h32l1 261h-30c-2-10 0-23-3-31C134-8 116 4 85 4 32 4 16-35 15-94c0-66 23-100 70-100zm9 24c-40 0-46 34-46 75 0 40 6 74 45 74 42 0 51-32 51-76 0-42-9-74-50-73" id="aa"/><g id="e"><use transform="matrix(0.05,0,0,0.05,0,0)" xlink:href="#X"/><use transform="matrix(0.05,0,0,0.05,10,0)" xlink:href="#O"/><use transform="matrix(0.05,0,0,0.05,20,0)" xlink:href="#H"/><use transform="matrix(0.05,0,0,0.05,29,0)" xlink:href="#H"/><use transform="matrix(0.05,0,0,0.05,38,0)" xlink:href="#Y"/><use transform="matrix(0.05,0,0,0.05,50.95,0)" xlink:href="#Z"/><use transform="matrix(0.05,0,0,0.05,60.95,0)" xlink:href="#J"/><use transform="matrix(0.05,0,0,0.05,66.9,0)" xlink:href="#aa"/></g><path fill="#333" d="M59-47c-2 24 18 29 38 22v24C64 9 27 4 27-40v-127H5v-23h24l9-43h21v43h35v23H59v120" id="ab"/><path fill="#333" d="M141 0L90-78 38 0H4l68-98-65-92h35l48 74 47-74h35l-64 92 68 98h-35" id="ac"/><g id="f"><use transform="matrix(0.05,0,0,0.05,0,0)" xlink:href="#ab"/><use transform="matrix(0.05,0,0,0.05,5,0)" xlink:href="#I"/><use transform="matrix(0.05,0,0,0.05,15,0)" xlink:href="#ac"/><use transform="matrix(0.05,0,0,0.05,24,0)" xlink:href="#ab"/></g><g id="g"><use transform="matrix(0.05,0,0,0.05,0,0)" xlink:href="#N"/><use transform="matrix(0.05,0,0,0.05,10,0)" xlink:href="#O"/><use transform="matrix(0.05,0,0,0.05,20,0)" xlink:href="#P"/><use transform="matrix(0.05,0,0,0.05,34.95,0)" xlink:href="#I"/></g><g id="h"><use transform="matrix(0.05,0,0,0.05,0,0)" xlink:href="#R"/><use transform="matrix(0.05,0,0,0.05,9,0)" xlink:href="#Z"/><use transform="matrix(0.05,0,0,0.05,19,0)" xlink:href="#N"/><use transform="matrix(0.05,0,0,0.05,29,0)" xlink:href="#ab"/><use transform="matrix(0.05,0,0,0.05,34,0)" xlink:href="#O"/><use transform="matrix(0.05,0,0,0.05,44,0)" xlink:href="#R"/><use transform="matrix(0.05,0,0,0.05,53,0)" xlink:href="#ab"/></g><path fill="#333" d="M101-251c82-7 93 87 43 132L82-64C71-53 59-42 53-27h129V0H18c2-99 128-94 128-182 0-28-16-43-45-43s-46 15-49 41l-32-3c6-41 34-60 81-64" id="ad"/><g id="i"><use transform="matrix(0.05,0,0,0.05,0,0)" xlink:href="#Q"/><use transform="matrix(0.05,0,0,0.05,9,0)" xlink:href="#O"/><use transform="matrix(0.05,0,0,0.05,19,0)" xlink:href="#J"/><use transform="matrix(0.05,0,0,0.05,24.95,0)" xlink:href="#R"/><use transform="matrix(0.05,0,0,0.05,33.95,0)" xlink:href="#S"/><use transform="matrix(0.05,0,0,0.05,43.95,0)" xlink:href="#O"/><use transform="matrix(0.05,0,0,0.05,53.95,0)" xlink:href="#J"/><use transform="matrix(0.05,0,0,0.05,59.900000000000006,0)" xlink:href="#T"/><use transform="matrix(0.05,0,0,0.05,65.85000000000001,0)" xlink:href="#ad"/><use transform="matrix(0.05,0,0,0.05,75.85000000000001,0)" xlink:href="#V"/><use transform="matrix(0.05,0,0,0.05,85.85000000000001,0)" xlink:href="#W"/></g><path fill="#333" d="M177-190C167-65 218 103 67 71c-23-6-38-20-44-43l32-5c15 47 100 32 89-28v-30C133-14 115 1 83 1 29 1 15-40 15-95c0-56 16-97 71-98 29-1 48 16 59 35 1-10 0-23 2-32h30zM94-22c36 0 50-32 50-73 0-42-14-75-50-75-39 0-46 34-46 75s6 73 46 73" id="ae"/><g id="j"><use transform="matrix(0.05,0,0,0.05,0,0)" xlink:href="#O"/><use transform="matrix(0.05,0,0,0.05,10,0)" xlink:href="#ae"/><use transform="matrix(0.05,0,0,0.05,20,0)" xlink:href="#I"/></g><path fill="#333" d="M24-231v-30h32v30H24zM24 0v-190h32V0H24" id="af"/><g id="k"><use transform="matrix(0.05,0,0,0.05,0,0)" xlink:href="#af"/><use transform="matrix(0.05,0,0,0.05,3.95,0)" xlink:href="#N"/><use transform="matrix(0.05,0,0,0.05,13.949999999999998,0)" xlink:href="#ab"/></g><path fill="#333" d="M143 0L79-87 56-68V0H24v-261h32v163l83-92h37l-77 82L181 0h-38" id="ag"/><g id="l"><use transform="matrix(0.05,0,0,0.05,0,0)" xlink:href="#R"/><use transform="matrix(0.05,0,0,0.05,9,0)" xlink:href="#S"/><use transform="matrix(0.05,0,0,0.05,19,0)" xlink:href="#I"/><use transform="matrix(0.05,0,0,0.05,29,0)" xlink:href="#R"/><use transform="matrix(0.05,0,0,0.05,38,0)" xlink:href="#ag"/></g><path fill="#333" d="M24-231v-30h32v30H24zM-9 49c24 4 33-6 33-30v-209h32V24c2 40-23 58-65 49V49" id="ah"/><path fill="#333" d="M-5 72V49h209v23H-5" id="ai"/><g id="m"><use transform="matrix(0.05,0,0,0.05,0,0)" xlink:href="#ah"/><use transform="matrix(0.05,0,0,0.05,3.95,0)" xlink:href="#Z"/><use transform="matrix(0.05,0,0,0.05,13.949999999999998,0)" xlink:href="#af"/><use transform="matrix(0.05,0,0,0.05,17.9,0)" xlink:href="#N"/><use transform="matrix(0.05,0,0,0.05,27.899999999999995,0)" xlink:href="#I"/><use transform="matrix(0.05,0,0,0.05,37.9,0)" xlink:href="#aa"/><use transform="matrix(0.05,0,0,0.05,47.9,0)" xlink:href="#ai"/><use transform="matrix(0.05,0,0,0.05,57.900000000000006,0)" xlink:href="#aa"/><use transform="matrix(0.05,0,0,0.05,67.9,0)" xlink:href="#O"/><use transform="matrix(0.05,0,0,0.05,77.9,0)" xlink:href="#ab"/><use transform="matrix(0.05,0,0,0.05,82.9,0)" xlink:href="#I"/></g><g id="n"><use transform="matrix(0.05,0,0,0.05,0,0)" xlink:href="#ab"/><use transform="matrix(0.05,0,0,0.05,5,0)" xlink:href="#af"/><use transform="matrix(0.05,0,0,0.05,8.95,0)" xlink:href="#P"/><use transform="matrix(0.05,0,0,0.05,23.9,0)" xlink:href="#I"/><use transform="matrix(0.05,0,0,0.05,33.9,0)" xlink:href="#H"/><use transform="matrix(0.05,0,0,0.05,42.9,0)" xlink:href="#ab"/><use transform="matrix(0.05,0,0,0.05,47.9,0)" xlink:href="#O"/><use transform="matrix(0.05,0,0,0.05,57.900000000000006,0)" xlink:href="#P"/><use transform="matrix(0.05,0,0,0.05,72.85,0)" xlink:href="#X"/></g><g id="o"><use transform="matrix(0.05,0,0,0.05,0,0)" xlink:href="#af"/><use transform="matrix(0.05,0,0,0.05,3.95,0)" xlink:href="#H"/><use transform="matrix(0.05,0,0,0.05,12.949999999999998,0)" xlink:href="#ai"/><use transform="matrix(0.05,0,0,0.05,22.95,0)" xlink:href="#O"/><use transform="matrix(0.05,0,0,0.05,32.95,0)" xlink:href="#R"/><use transform="matrix(0.05,0,0,0.05,41.95,0)" xlink:href="#ab"/><use transform="matrix(0.05,0,0,0.05,46.95,0)" xlink:href="#af"/><use transform="matrix(0.05,0,0,0.05,50.900000000000006,0)" xlink:href="#Q"/><use transform="matrix(0.05,0,0,0.05,59.900000000000006,0)" xlink:href="#I"/></g><path fill="#333" d="M115-194c53 0 69 39 70 98 0 66-23 100-70 100C84 3 66-7 56-30L54 0H23l1-261h32v101c10-23 28-34 59-34zm-8 174c40 0 45-34 45-75 0-40-5-75-45-74-42 0-51 32-51 76 0 43 10 73 51 73" id="aj"/><path fill="#333" d="M24 0v-261h32V0H24" id="ak"/><g id="p"><use transform="matrix(0.05,0,0,0.05,0,0)" xlink:href="#aj"/><use transform="matrix(0.05,0,0,0.05,10,0)" xlink:href="#Z"/><use transform="matrix(0.05,0,0,0.05,20,0)" xlink:href="#Z"/><use transform="matrix(0.05,0,0,0.05,30,0)" xlink:href="#ak"/><use transform="matrix(0.05,0,0,0.05,33.95,0)" xlink:href="#I"/><use transform="matrix(0.05,0,0,0.05,43.95,0)" xlink:href="#O"/><use transform="matrix(0.05,0,0,0.05,53.95,0)" xlink:href="#N"/></g><path fill="#333" d="M160-131c35 5 61 23 61 61C221 17 115-2 30 0v-248c76 3 177-17 177 60 0 33-19 50-47 57zm-97-11c50-1 110 9 110-42 0-47-63-36-110-37v79zm0 115c55-2 124 14 124-45 0-56-70-42-124-44v89" id="al"/><g id="q"><use transform="matrix(0.05,0,0,0.05,0,0)" xlink:href="#al"/><use transform="matrix(0.05,0,0,0.05,12,0)" xlink:href="#O"/><use transform="matrix(0.05,0,0,0.05,22,0)" xlink:href="#ab"/><use transform="matrix(0.05,0,0,0.05,27,0)" xlink:href="#R"/><use transform="matrix(0.05,0,0,0.05,36,0)" xlink:href="#S"/><use transform="matrix(0.05,0,0,0.05,46,0)" xlink:href="#I"/><use transform="matrix(0.05,0,0,0.05,56,0)" xlink:href="#H"/></g><g id="r"><use transform="matrix(0.05,0,0,0.05,0,0)" xlink:href="#aj"/><use transform="matrix(0.05,0,0,0.05,10,0)" xlink:href="#O"/><use transform="matrix(0.05,0,0,0.05,20,0)" xlink:href="#ab"/><use transform="matrix(0.05,0,0,0.05,25,0)" xlink:href="#R"/><use transform="matrix(0.05,0,0,0.05,34,0)" xlink:href="#S"/><use transform="matrix(0.05,0,0,0.05,44,0)" xlink:href="#ai"/><use transform="matrix(0.05,0,0,0.05,54,0)" xlink:href="#af"/><use transform="matrix(0.05,0,0,0.05,57.95,0)" xlink:href="#aa"/></g><g id="s"><use transform="matrix(0.05,0,0,0.05,0,0)" xlink:href="#af"/><use transform="matrix(0.05,0,0,0.05,3.95,0)" xlink:href="#N"/><use transform="matrix(0.05,0,0,0.05,13.949999999999998,0)" xlink:href="#ab"/></g><g id="t"><use transform="matrix(0.05,0,0,0.05,0,0)" xlink:href="#aj"/><use transform="matrix(0.05,0,0,0.05,10,0)" xlink:href="#O"/><use transform="matrix(0.05,0,0,0.05,20,0)" xlink:href="#ab"/><use transform="matrix(0.05,0,0,0.05,25,0)" xlink:href="#R"/><use transform="matrix(0.05,0,0,0.05,34,0)" xlink:href="#S"/></g><path fill="#333" d="M212-179c-10-28-35-45-73-45-59 0-87 40-87 99 0 60 29 101 89 101 43 0 62-24 78-52l27 14C228-24 195 4 139 4 59 4 22-46 18-125c-6-104 99-153 187-111 19 9 31 26 39 46" id="am"/><path fill="#333" d="M233-177c-1 41-23 64-60 70L243 0h-38l-65-103H63V0H30v-248c88 3 205-21 203 71zM63-129c60-2 137 13 137-47 0-61-80-42-137-45v92" id="an"/><path fill="#333" d="M145-31C134-9 116 4 85 4 32 4 16-35 15-94c0-59 17-99 70-100 32-1 48 14 60 33 0-11-1-24 2-32h30l-1 268h-32zM93-21c41 0 51-33 51-76s-8-73-50-73c-40 0-46 35-46 75s5 74 45 74" id="ao"/><g id="u"><use transform="matrix(0.05,0,0,0.05,0,0)" xlink:href="#al"/><use transform="matrix(0.05,0,0,0.05,12,0)" xlink:href="#O"/><use transform="matrix(0.05,0,0,0.05,22,0)" xlink:href="#ab"/><use transform="matrix(0.05,0,0,0.05,27,0)" xlink:href="#R"/><use transform="matrix(0.05,0,0,0.05,36,0)" xlink:href="#S"/><use transform="matrix(0.05,0,0,0.05,46,0)" xlink:href="#am"/><use transform="matrix(0.05,0,0,0.05,58.95,0)" xlink:href="#S"/><use transform="matrix(0.05,0,0,0.05,68.95,0)" xlink:href="#O"/><use transform="matrix(0.05,0,0,0.05,78.95,0)" xlink:href="#N"/><use transform="matrix(0.05,0,0,0.05,88.95,0)" xlink:href="#ae"/><use transform="matrix(0.05,0,0,0.05,98.95,0)" xlink:href="#I"/><use transform="matrix(0.05,0,0,0.05,108.95,0)" xlink:href="#an"/><use transform="matrix(0.05,0,0,0.05,121.9,0)" xlink:href="#I"/><use transform="matrix(0.05,0,0,0.05,131.9,0)" xlink:href="#ao"/><use transform="matrix(0.05,0,0,0.05,141.9,0)" xlink:href="#M"/><use transform="matrix(0.05,0,0,0.05,151.9,0)" xlink:href="#I"/><use transform="matrix(0.05,0,0,0.05,161.9,0)" xlink:href="#H"/><use transform="matrix(0.05,0,0,0.05,170.9,0)" xlink:href="#ab"/></g><g id="v"><use transform="matrix(0.05,0,0,0.05,0,0)" xlink:href="#af"/><use transform="matrix(0.05,0,0,0.05,3.95,0)" xlink:href="#aa"/></g><path fill="#333" d="M33 0v-248h34V0H33" id="ap"/><path fill="#333" d="M190 0L58-211 59 0H30v-248h39L202-35l-2-213h31V0h-41" id="aq"/><path fill="#333" d="M127-220V0H93v-220H8v-28h204v28h-85" id="ar"/><g id="w"><use transform="matrix(0.05,0,0,0.05,0,0)" xlink:href="#ap"/><use transform="matrix(0.05,0,0,0.05,5,0)" xlink:href="#aq"/><use transform="matrix(0.05,0,0,0.05,17.950000000000003,0)" xlink:href="#ar"/></g><path d="M63-220v92h138v28H63V0H30v-248h175v28H63" id="as"/><g id="x"><use transform="matrix(0.05,0,0,0.05,0,0)" xlink:href="#as"/><use transform="matrix(0.05,0,0,0.05,10.950000000000001,0)" xlink:href="#L"/></g><g id="y"><use transform="matrix(0.05,0,0,0.05,0,0)" xlink:href="#J"/><use transform="matrix(0.05,0,0,0.05,5.95,0)" xlink:href="#I"/><use transform="matrix(0.05,0,0,0.05,15.949999999999998,0)" xlink:href="#ao"/><use transform="matrix(0.05,0,0,0.05,25.950000000000003,0)" xlink:href="#M"/><use transform="matrix(0.05,0,0,0.05,35.95,0)" xlink:href="#I"/><use transform="matrix(0.05,0,0,0.05,45.95,0)" xlink:href="#H"/><use transform="matrix(0.05,0,0,0.05,54.95,0)" xlink:href="#ab"/><use transform="matrix(0.05,0,0,0.05,59.95,0)" xlink:href="#I"/><use transform="matrix(0.05,0,0,0.05,69.95,0)" xlink:href="#aa"/><use transform="matrix(0.05,0,0,0.05,79.95,0)" xlink:href="#ai"/><use transform="matrix(0.05,0,0,0.05,89.95,0)" xlink:href="#ab"/><use transform="matrix(0.05,0,0,0.05,94.95,0)" xlink:href="#af"/><use transform="matrix(0.05,0,0,0.05,98.9,0)" xlink:href="#P"/><use transform="matrix(0.05,0,0,0.05,113.85000000000001,0)" xlink:href="#I"/></g><path fill="#333" d="M30-248c87 1 191-15 191 75 0 78-77 80-158 76V0H30v-248zm33 125c57 0 124 11 124-50 0-59-68-47-124-48v98" id="at"/><path fill="#333" d="M179-190L93 31C79 59 56 82 12 73V49c39 6 53-20 64-50L1-190h34L92-34l54-156h33" id="au"/><path fill="#333" d="M197 0v-115H63V0H30v-248h33v105h134v-105h34V0h-34" id="av"/><g id="z"><use transform="matrix(0.05,0,0,0.05,0,0)" xlink:href="#at"/><use transform="matrix(0.05,0,0,0.05,12,0)" xlink:href="#O"/><use transform="matrix(0.05,0,0,0.05,22,0)" xlink:href="#au"/><use transform="matrix(0.05,0,0,0.05,31,0)" xlink:href="#P"/><use transform="matrix(0.05,0,0,0.05,45.95,0)" xlink:href="#I"/><use transform="matrix(0.05,0,0,0.05,55.95,0)" xlink:href="#N"/><use transform="matrix(0.05,0,0,0.05,65.95,0)" xlink:href="#ab"/><use transform="matrix(0.05,0,0,0.05,70.95,0)" xlink:href="#av"/><use transform="matrix(0.05,0,0,0.05,83.9,0)" xlink:href="#af"/><use transform="matrix(0.05,0,0,0.05,87.85000000000001,0)" xlink:href="#H"/><use transform="matrix(0.05,0,0,0.05,96.85000000000001,0)" xlink:href="#ab"/><use transform="matrix(0.05,0,0,0.05,101.85000000000001,0)" xlink:href="#Z"/><use transform="matrix(0.05,0,0,0.05,111.85000000000001,0)" xlink:href="#J"/><use transform="matrix(0.05,0,0,0.05,117.80000000000001,0)" xlink:href="#au"/></g><path fill="#333" d="M101-234c-31-9-42 10-38 44h38v23H63V0H32v-167H5v-23h27c-7-52 17-82 69-68v24" id="aw"/><g id="A"><use transform="matrix(0.05,0,0,0.05,0,0)" xlink:href="#ab"/><use transform="matrix(0.05,0,0,0.05,5,0)" xlink:href="#af"/><use transform="matrix(0.05,0,0,0.05,8.95,0)" xlink:href="#P"/><use transform="matrix(0.05,0,0,0.05,23.9,0)" xlink:href="#I"/><use transform="matrix(0.05,0,0,0.05,33.9,0)" xlink:href="#ai"/><use transform="matrix(0.05,0,0,0.05,43.9,0)" xlink:href="#Z"/><use transform="matrix(0.05,0,0,0.05,53.900000000000006,0)" xlink:href="#aw"/><use transform="matrix(0.05,0,0,0.05,58.900000000000006,0)" xlink:href="#ai"/><use transform="matrix(0.05,0,0,0.05,68.9,0)" xlink:href="#X"/><use transform="matrix(0.05,0,0,0.05,78.9,0)" xlink:href="#O"/><use transform="matrix(0.05,0,0,0.05,88.9,0)" xlink:href="#au"/><use transform="matrix(0.05,0,0,0.05,97.9,0)" xlink:href="#P"/><use transform="matrix(0.05,0,0,0.05,112.85000000000001,0)" xlink:href="#I"/><use transform="matrix(0.05,0,0,0.05,122.85000000000001,0)" xlink:href="#N"/><use transform="matrix(0.05,0,0,0.05,132.85000000000002,0)" xlink:href="#ab"/></g><g id="B"><use transform="matrix(0.05,0,0,0.05,0,0)" xlink:href="#O"/><use transform="matrix(0.05,0,0,0.05,10,0)" xlink:href="#P"/><use transform="matrix(0.05,0,0,0.05,24.950000000000003,0)" xlink:href="#Z"/><use transform="matrix(0.05,0,0,0.05,34.95,0)" xlink:href="#M"/><use transform="matrix(0.05,0,0,0.05,44.95,0)" xlink:href="#N"/><use transform="matrix(0.05,0,0,0.05,54.95,0)" xlink:href="#ab"/></g><path fill="#3a414a" d="M146-102V0H94v-102L6-248h54l60 105 60-105h54" id="ax"/><path fill="#3a414a" d="M110-194c64 0 96 36 96 99 0 64-35 99-97 99-61 0-95-36-95-99 0-62 34-99 96-99zm-1 164c35 0 45-28 45-65 0-40-10-65-43-65-34 0-45 26-45 65 0 36 10 65 43 65" id="ay"/><path fill="#3a414a" d="M195-6C206 82 75 100 31 46c-4-6-6-13-8-21l49-6c3 16 16 24 34 25 40 0 42-37 40-79-11 22-30 35-61 35-53 0-70-43-70-97 0-56 18-96 73-97 30 0 46 14 59 34l2-30h47zm-90-29c32 0 41-27 41-63 0-35-9-62-40-62-32 0-39 29-40 63 0 36 9 62 39 62" id="az"/><path fill="#3a414a" d="M133-34C117-15 103 5 69 4 32 3 11-16 11-54c-1-60 55-63 116-61 1-26-3-47-28-47-18 1-26 9-28 27l-52-2c7-38 36-58 82-57s74 22 75 68l1 82c-1 14 12 18 25 15v27c-30 8-71 5-69-32zm-48 3c29 0 43-24 42-57-32 0-66-3-65 30 0 17 8 27 23 27" id="aA"/><g id="C"><use transform="matrix(0.0925925925925925,0,0,0.0925925925925925,0,0)" xlink:href="#ax"/><use transform="matrix(0.0925925925925925,0,0,0.0925925925925925,19.722222222222204,0)" xlink:href="#ay"/><use transform="matrix(0.0925925925925925,0,0,0.0925925925925925,39.99999999999996,0)" xlink:href="#az"/><use transform="matrix(0.0925925925925925,0,0,0.0925925925925925,60.27777777777771,0)" xlink:href="#aA"/></g><path fill="#3a414a" d="M67-125c0 53 21 87 73 88 37 1 54-22 65-47l45 17C233-25 199 4 140 4 58 4 20-42 15-125 8-235 124-281 211-232c18 10 29 29 36 50l-46 12c-8-25-30-41-62-41-52 0-71 34-72 86" id="aB"/><path fill="#3a414a" d="M25 0v-261h50V0H25" id="aC"/><path fill="#3a414a" d="M137-138c1-29-70-34-71-4 15 46 118 7 119 86 1 83-164 76-172 9l43-7c4 19 20 25 44 25 33 8 57-30 24-41C81-84 22-81 20-136c-2-80 154-74 161-7" id="aD"/><g id="D"><use transform="matrix(0.0925925925925925,0,0,0.0925925925925925,0,0)" xlink:href="#aB"/><use transform="matrix(0.0925925925925925,0,0,0.0925925925925925,23.98148148148146,0)" xlink:href="#aC"/><use transform="matrix(0.0925925925925925,0,0,0.0925925925925925,33.24074074074071,0)" xlink:href="#aA"/><use transform="matrix(0.0925925925925925,0,0,0.0925925925925925,51.75925925925921,0)" xlink:href="#aD"/><use transform="matrix(0.0925925925925925,0,0,0.0925925925925925,70.27777777777771,0)" xlink:href="#aD"/></g><path fill="#3a414a" d="M199 0l-22-63H83L61 0H9l90-248h61L250 0h-51zm-33-102l-36-108c-10 38-24 72-36 108h72" id="aE"/><path fill="#3a414a" d="M88-194c31-1 46 15 58 34l-1-101h50l1 261h-48c-2-10 0-23-3-31C134-8 116 4 84 4 32 4 16-41 15-95c0-56 19-97 73-99zm17 164c33 0 40-30 41-66 1-37-9-64-41-64s-38 30-39 65c0 43 13 65 39 65" id="aF"/><path fill="#3a414a" d="M220-157c-53 9-28 100-34 157h-49v-107c1-27-5-49-29-50C55-147 81-57 75 0H25l-1-190h47c2 12-1 28 3 38 10-53 101-56 108 0 13-22 24-43 59-42 82 1 51 116 57 194h-49v-107c-1-25-5-48-29-50" id="aG"/><path fill="#3a414a" d="M25-224v-37h50v37H25zM25 0v-190h50V0H25" id="aH"/><path fill="#3a414a" d="M135-194c87-1 58 113 63 194h-50c-7-57 23-157-34-157-59 0-34 97-39 157H25l-1-190h47c2 12-1 28 3 38 12-26 28-41 61-42" id="aI"/><g id="E"><use transform="matrix(0.0925925925925925,0,0,0.0925925925925925,0,0)" xlink:href="#aE"/><use transform="matrix(0.0925925925925925,0,0,0.0925925925925925,23.98148148148146,0)" xlink:href="#aF"/><use transform="matrix(0.0925925925925925,0,0,0.0925925925925925,44.25925925925922,0)" xlink:href="#aG"/><use transform="matrix(0.0925925925925925,0,0,0.0925925925925925,73.88888888888881,0)" xlink:href="#aH"/><use transform="matrix(0.0925925925925925,0,0,0.0925925925925925,83.14814814814807,0)" xlink:href="#aD"/><use transform="matrix(0.0925925925925925,0,0,0.0925925925925925,101.66666666666657,0)" xlink:href="#aD"/><use transform="matrix(0.0925925925925925,0,0,0.0925925925925925,120.18518518518508,0)" xlink:href="#aH"/><use transform="matrix(0.0925925925925925,0,0,0.0925925925925925,129.44444444444431,0)" xlink:href="#ay"/><use transform="matrix(0.0925925925925925,0,0,0.0925925925925925,149.72222222222206,0)" xlink:href="#aI"/></g><path fill="#3a414a" d="M24-248c120-7 223 5 221 122C244-46 201 0 124 0H24v-248zM76-40c74 7 117-18 117-86 0-67-45-88-117-82v168" id="aJ"/><path fill="#3a414a" d="M182-130c37 4 62 22 62 59C244 23 116-4 24 0v-248c84 5 203-23 205 63 0 31-19 50-47 55zM76-148c40-3 101 13 101-30 0-44-60-28-101-31v61zm0 110c48-3 116 14 116-37 0-48-69-32-116-35v72" id="aK"/><g id="F"><use transform="matrix(0.0925925925925925,0,0,0.0925925925925925,0,0)" xlink:href="#aJ"/><use transform="matrix(0.0925925925925925,0,0,0.0925925925925925,23.98148148148146,0)" xlink:href="#aK"/></g></defs></g></svg>